Coordinates
version=1
nRows=10
nColumns=40
inDegrees=yes

Units are S.I. units (second, meters, Newtons, ...)
If the header above contains a line with 'inDegrees', this indicates whether rotational values are in degrees (yes) or radians (no).

endheader
time	pelvis_tilt	pelvis_list	pelvis_rotation	pelvis_tx	pelvis_ty	pelvis_tz	hip_flexion_r	hip_adduction_r	hip_rotation_r	knee_angle_r	knee_angle_r_beta	ankle_angle_r	subtalar_angle_r	mtp_angle_r	hip_flexion_l	hip_adduction_l	hip_rotation_l	knee_angle_l	knee_angle_l_beta	ankle_angle_l	subtalar_angle_l	mtp_angle_l	lumbar_extension	lumbar_bending	lumbar_rotation	arm_flex_r	arm_add_r	arm_rot_r	elbow_flex_r	pro_sup_r	wrist_flex_r	wrist_dev_r	arm_flex_l	arm_add_l	arm_rot_l	elbow_flex_l	pro_sup_l	wrist_flex_l	wrist_dev_l
      0.00000000	    -22.80001943	     15.39108772	     -8.12102961	     -2.91535149	      0.91127553	      0.29815791	     -3.65994628	    -20.35088034	     -1.48042173	     22.73413246	      0.39678546	    -14.95097100	      0.00000000	      0.00000000	     80.77614772	     -3.37895786	     -9.89245917	     91.24931842	      1.59260105	     10.77563742	      0.00000000	      0.00000000	    -18.58566359	    -20.93226118	     -4.35022304	     76.29733189	    -17.55680662	      5.21949974	    131.74244500	     38.18518480	      0.00000000	      0.00000000	    -77.27929499	    -11.98993026	    -39.64844631	     77.21843759	     89.16490902	      0.00000000	      0.00000000
      0.00500000	    -22.55667180	     15.58849344	     -7.11230698	     -2.88333883	      0.91537055	      0.29846055	     -4.94596165	    -20.32454138	     -1.47272162	     23.66357507	      0.41300730	    -18.03356531	      0.00000000	      0.00000000	     80.01435313	     -2.81338855	    -10.76899866	     86.88447734	      1.51642020	     10.39770399	      0.00000000	      0.00000000	    -19.06837435	    -21.37658605	     -5.65532755	     73.09628087	    -17.96587575	      5.39614919	    132.62506834	     39.89228501	      0.00000000	      0.00000000	    -76.49678878	    -11.82516937	    -39.93392840	     77.85637124	     89.10880958	      0.00000000	      0.00000000
      0.01000000	    -22.18821045	     15.69026039	     -6.27430307	     -2.85140970	      0.91989585	      0.29883642	     -5.94119556	    -20.16732767	     -1.31871560	     25.22389100	      0.44023995	    -20.35619266	      0.00000000	      0.00000000	     78.84358723	     -2.32066865	    -11.68830206	     82.40455147	      1.43823074	      9.94470431	      0.00000000	      0.00000000	    -19.74396203	    -21.70890323	     -6.75909625	     69.54089216	    -18.38098961	      5.55039732	    133.04005696	     41.74177993	      0.00000000	      0.00000000	    -75.28069353	    -11.90373904	    -39.98718191	     78.52855001	     89.02218644	      0.00000000	      0.00000000
      0.01500000	    -21.71404349	     15.70079952	     -5.60210457	     -2.81960385	      0.92471783	      0.29929169	     -6.62886170	    -19.89567184	     -1.04522584	     27.41371820	      0.47845964	    -21.90740281	      0.00000000	      0.00000000	     77.32342956	     -1.89860703	    -12.62058006	     77.86527415	      1.35900541	      9.41172769	      0.00000000	      0.00000000	    -20.57605856	    -21.92937126	     -7.62841850	     65.70312221	    -18.79013475	      5.60251858	    132.96534815	     43.49842840	      0.00000000	      0.00000000	    -73.66836023	    -12.24672491	    -39.80274518	     79.25297661	     88.89473617	      0.00000000	      0.00000000
      0.02000000	    -21.16336128	     15.62763132	     -5.07543318	     -2.78795140	      0.92969098	      0.29981508	     -7.00051529	    -19.52643567	     -0.69678524	     30.20305434	      0.52714274	    -22.73600602	      0.00000000	      0.00000000	     75.52458209	     -1.53823209	    -13.54522307	     73.32454454	      1.27975472	      8.79148732	      0.00000000	      0.00000000	    -21.51953893	    -22.04339084	     -8.24982787	     61.64812305	    -19.17358132	      5.47850003	    132.40125955	     44.86193042	      0.00000000	      0.00000000	    -71.69799544	    -12.85700223	    -39.37995401	     80.04291065	     88.71084895	      0.00000000	      0.00000000
      0.02500000	    -20.57284298	     15.47740256	     -4.66084525	     -2.75647217	      0.93466422	      0.30037882	     -7.05640591	    -19.07246017	     -0.32706134	     33.53174053	      0.58523928	    -22.94604274	      0.00000000	      0.00000000	     73.52560350	     -1.22541087	    -14.44484898	     68.84383353	      1.20155156	      8.07771364	      0.00000000	      0.00000000	    -22.52350709	    -22.05619244	     -8.62801582	     57.43544818	    -19.50332182	      5.11235142	    131.36046313	     45.62871487	      0.00000000	      0.00000000	    -69.40515613	    -13.72003035	    -38.72122605	     80.90599487	     88.44290589	      0.00000000	      0.00000000
      0.03000000	    -19.98199013	     15.25415253	     -4.31564624	     -2.72517491	      0.93949171	      0.30094268	     -6.80578377	    -18.54093614	      0.01071779	     37.31350232	      0.65124347	    -22.68402486	      0.00000000	      0.00000000	     71.40699587	     -0.94312591	    -15.30147995	     64.48872557	      1.12554059	      7.26952664	      0.00000000	      0.00000000	    -23.53648493	    -21.96946207	     -8.78334032	     53.11997643	    -19.74948209	      4.46680893	    129.87956556	     45.51797876	      0.00000000	      0.00000000	    -66.81756161	    -14.80553952	    -37.83466182	     81.83951715	     88.09916288	      0.00000000	      0.00000000
      0.03500000	    -19.42808463	     14.95966395	     -3.99304787	     -2.69405754	      0.94404302	      0.30146018	     -6.26586719	    -17.93399166	      0.27117596	     41.44586840	      0.72336686	    -22.11686812	      0.00000000	      0.00000000	     69.24518639	     -0.67479900	    -16.09636299	     60.32981648	      1.05295393	      6.37642535	      0.00000000	      0.00000000	    -24.51130996	    -21.78082940	     -8.74624204	     48.75986369	    -19.87374499	      3.47815779	    127.93128849	     45.33920071	      0.00000000	      0.00000000	    -63.95906264	    -16.07256737	    -36.70762824	     82.84751412	     87.35288361	      0.00000000	      0.00000000
      0.04000000	    -18.94132944	     14.59614175	     -3.64818794	     -2.66310864	      0.94821219	      0.30188680	     -5.45961755	    -17.25271414	      0.42045617	     45.82359057	      0.79977253	    -21.40029896	      0.00000000	      0.00000000	     67.10622451	     -0.40720475	    -16.81369742	     56.44116756	      0.98508421	      5.42071151	      0.00000000	      0.00000000	    -25.40982262	    -21.48735900	     -8.55332763	     44.40386455	    -19.85564670	      2.15396338	    125.57336535	     44.94788464	      0.00000000	      0.00000000	    -60.84152333	    -17.47385597	    -35.34034836	     83.91859483	     86.08011762	      0.00000000	      0.00000000
      0.04500000	    -18.54174593	     14.16827118	     -3.24302701	     -2.63231037	      0.95192193	      0.30218632	     -4.41349106	    -16.50115008	      0.43703819	     50.35027200	      0.87877803	    -20.64865966	      0.00000000	      0.00000000	     65.04139398	     -0.13208694	    -17.44289583	     52.89644666	      0.92321716	      4.43464849	      0.00000000	      0.00000000	    -26.20451223	    -21.08814441	     -8.24171997	     40.09517755	    -19.68392076	      0.52585018	    122.88479043	     44.01911998	      0.00000000	      0.00000000	    -57.48018841	    -18.96122547	    -33.67902333	     85.07930853	     83.30528373	      0.00000000	      0.00000000
